<svg version="1.2" xmlns="http://www.w3.org/2000/svg" viewBox="0 0 1440 1440" width="1440" height="1440">
	<title>Vector Smart Object-ai</title>
	<style>
		.s0 { fill: none;stroke: #231f20;stroke-miterlimit:10;stroke-width: 24 } 
		.s1 { fill: #231f20 } 
	</style>
	<g id="Layer 1">
		<path id="&lt;Compound Path&gt;" class="s0" d="m720 315.8c-228.2 0-413.1 184.9-413.1 413.1 0 228.1 184.9 413.1 413.1 413.1 228.2 0 413.1-185 413.1-413.1 0-228.2-184.9-413.1-413.1-413.1z"/>
		<path id="&lt;Path&gt;" class="s1" d="m801.1 612c-15.7 0-32.6 0-40.6 0-8.1 0-16.2 8.3-16.2 14.5 0 6.2 0 41.4 0 41.4 0 0 50.2 0 56.7 0-2.2 31.8-6.9 60.9-6.9 60.9h-50.1v180.1h-74.6v-180.1h-36.3v-60.6h36.3c0 0 0-40.5 0-49.6 0-9.1-1.8-69.7 76.5-69.7 10.5 0 34.3 0 55.2 0 0 26.3 0 54.8 0 63.1z"/>
	</g>
</svg>