<svg version="1.2" xmlns="http://www.w3.org/2000/svg" viewBox="0 0 1440 1440" width="1440" height="1440">
	<title>Vector Smart Object-ai</title>
	<style>
		.s0 { fill: none;stroke: #231f20;stroke-miterlimit:10;stroke-width: 24 } 
		.s1 { fill: #231f20 } 
	</style>
	<g id="Layer 1">
		<path id="&lt;Compound Path&gt;" class="s0" d="m730.1 315.8c-228.2 0-413.1 184.9-413.1 413.1 0 228.1 184.9 413.1 413.1 413.1 228.1 0 413.1-185 413.1-413.1 0-228.2-185-413.1-413.1-413.1z"/>
		<path id="&lt;Compound Path&gt;" fill-rule="evenodd" class="s1" d="m915.7 640.4v176.9c0 56.7-46 102.7-102.7 102.7h-165.8c-56.7 0-102.7-46-102.7-102.7v-176.9c0-56.7 46-102.7 102.7-102.7h165.8c56.7 0 102.7 46 102.7 102.7zm-92.9 90.1c1.1-50.1-29.9-89.3-91.1-91.1-50.4-1.5-91.2 40.8-91.2 91.1 0 50.4 40.8 91.2 91.2 91.2 50.3 0 90-40.8 91.1-91.2zm46.7-112.6c0-14.2-11.5-25.6-25.6-25.6-14.1 0-25.6 11.4-25.6 25.6 0 14.1 11.5 25.5 25.6 25.5 14.1 0 25.6-11.4 25.6-25.5z"/>
	</g>
</svg>